<svg xmlns="http://www.w3.org/2000/svg" fill-rule="evenodd" stroke-linecap="round" stroke-linejoin="round" stroke-miterlimit="1.5" clip-rule="evenodd" viewBox="0 0 2784 2784"><circle cx="1391.7" cy="1391.7" r="1354.2" fill="#4a425a" stroke="#000" stroke-width="2.1"/><path fill="#fff" d="M1984.6 1868.8l251.2-690.3-35-12.7-251.2 690.2 35 12.8zM1098.9 1937.8l169.6-466-35.2-12.9-169.6 466.1 35.2 12.8zM758 1491l182.6-501.4-35.3-12.8L723 1478.2 758 1491zM1355 572.7l146.5-402.4-35-12.8L1320 560l35 12.8zM1559.8 1406.6l274.8-755-35-12.7-274.8 755 35 12.7zM1702.7 1728.5l232.4-638.5-35-12.7-232.4 638.4 35 12.8z"/><path fill="snow" d="M1807 1871c-282.4-480-274.4-996.2-338.8-1180.7-80.9-231.8-317.1-278.1-497.4-231.6-210 54.1-456.3 351.4-331 482.7 115 120.2 405.4 43.2 478.7-36l-18.2 24.7c340.8 836.2 93 1556.3 297.8 1740.2 51.5 179.8 1220.8-490 1143.3-708.3-120.2-338.8-457.8 4.5-767.3-158.3"/><path d="M1833.9 1855.1c-167.2-284.2-231-581.3-269.1-812.8-26.2-158.7-41-287.4-67-362.3-87.2-249.7-340.6-301.7-534.8-251.6-133.3 34.4-281 161-348.8 287.1-50 93.2-55.7 185.9 3 247.4 51.7 54 134.2 74.6 220.7 71.8 124.8-4.1 256-56.8 303.6-108.2a31.3 31.3 0 00-46-42.4c-40.4 43.8-153.4 84.6-259.7 88.1-67.5 2.2-133-10.3-173.3-52.4-41.6-43.5-28.6-108.9 6.8-174.7C729.5 633 860 519.5 978.7 489c166.3-43 385.3-2.3 460 211.7 25.4 72.7 39 197.8 64.4 351.8 39.2 237.7 105.2 542.6 276.9 834.4a31.3 31.3 0 0053.9-31.7z"/><path d="M1071.4 941.9C1308.3 1523 1258 2048 1276.7 2373c8.7 151 34.4 261.1 100.5 320.4a31.3 31.3 0 0041.7-46.5c-28.6-25.7-46.2-63.9-58.3-112-20.3-81-24.2-188.3-26.4-316.4-5.6-330.3 1.3-794.2-205-1300.3a31.3 31.3 0 00-57.8 23.6z"/><path fill="none" stroke="#000" stroke-width="62.5" d="M1774.1 1803.7c309.5 162.8 579.8-152.6 767.3 158.3M971.5 694.9c-1.4 1.4.4.8 1.3.8M776.3 689.6l-.2 1"/><path fill="none" stroke="#000" stroke-width="37.5" d="M1712.3 1648.3c68.1 12.7 85.4 45.4 75.9 88.5-21.9 99.4-185.5 254.3-196.5 348.2M1277.3 1718c-190.8 141.2-35.6 242.4-39.2 362.7"/><path fill="#fff" d="M2308 1619.6l290-796.8-35-12.7-290 796.8 35 12.7zM2197.1 971.4l153.2-420.7-35-12.8L2162 958.6l35 12.8zM293.7 1430.2l263.4-723.7-35.2-12.8-263.4 723.7 35.2 12.8zM288.2 1990l182.5-501.4-35.2-12.8L253 1977.2l35.2 12.8zM951 1664.8l179.6-493.7-35.2-12.8L915.7 1652l35.3 12.9zM781.3 2298.2l159.2-437.4-35.3-12.8-159.1 437.3 35.2 12.9zM588.2 1368.3l102.5-281.5-35.3-12.8L553 1355.5l35.2 12.8zM916.4 421l102.4-281.6-35.2-12.8L881 408l35.3 12.8zM1970.4 824.1l130-357.3-35.2-12.8-130 357.3 35.2 12.8zM1652.5 649.5l146.3-402-35-12.7-146.4 402 35 12.7zM540.4 2194.8l196.5-540-35.2-12.9L505 2182l35.3 12.9zM896.6 2593.1l95.8-263.1-35.3-12.8-95.7 263 35.2 13zM2459.8 1774l136.9-376.2-35-12.7-137 376 35 12.8z"/><path fill="snow" stroke="#000" stroke-width="62.5" d="M1086.9 2103.1h620.4v322.8h-620.4z"/><path d="M1155.9 2210.9h282.9V2190h-283v20.9zM1155.9 2269h416.9v-20.8h-417v20.8zM1155.9 2351.8h389.7V2331H1156v20.8z"/><path d="M1391.7 37.5c747.4 0 1354.1 606.8 1354.1 1354.2 0 747.4-606.7 1354.1-1354.1 1354.1-747.4 0-1354.2-606.7-1354.2-1354.1C37.5 644.3 644.3 37.5 1391.7 37.5zm0 178.6c648.8 0 1175.6 526.7 1175.6 1175.6 0 648.8-526.8 1175.6-1175.6 1175.6-648.9 0-1175.6-526.8-1175.6-1175.6C216 742.8 742.8 216 1391.7 216z"/></svg>